<svg width="19" height="21" viewBox="0 0 19 21" fill="none" xmlns="http://www.w3.org/2000/svg">
<path fill-rule="evenodd" clip-rule="evenodd" d="M9.23047 0.523438C6.58378 0.523438 4.43047 2.67675 4.43047 5.32344V5.92344H1.13047C0.634783 5.92344 0.230469 6.32775 0.230469 6.82344V16.9394C0.230469 18.9711 1.88278 20.6234 3.91447 20.6234H14.5465C16.5782 20.6234 18.2305 18.9711 18.2305 16.9394V6.82344C18.2305 6.32775 17.8262 5.92344 17.3305 5.92344H14.0305V5.32344C14.0305 2.67675 11.8772 0.523438 9.23047 0.523438ZM6.23047 5.32344C6.23047 3.66812 7.57515 2.32344 9.23047 2.32344C10.8858 2.32344 12.2305 3.66812 12.2305 5.32344V5.92344H6.23047V5.32344ZM2.03047 16.9394V7.72344H4.43047V8.92344C4.43047 9.41912 4.83478 9.82344 5.33047 9.82344C5.82615 9.82344 6.23047 9.41912 6.23047 8.92344V7.72344H12.2305V8.92344C12.2305 9.41912 12.6348 9.82344 13.1305 9.82344C13.6262 9.82344 14.0305 9.41912 14.0305 8.92344V7.72344H16.4305V16.9394C16.4305 17.9768 15.5838 18.8234 14.5465 18.8234H3.91447C2.87715 18.8234 2.03047 17.9768 2.03047 16.9394Z" fill="white"/>
</svg>
