<svg width="28" height="28" viewBox="0 0 28 28" fill="none" xmlns="http://www.w3.org/2000/svg">
<path d="M23.9718 3.71462e-07H4.55136C3.48457 0.00137352 2.46171 0.425786 1.70754 1.18028C0.953375 1.93477 0.529235 2.95773 0.52832 4.02451V23.4469C0.529236 24.5135 0.953325 25.5362 1.70754 26.2904C2.46176 27.0446 3.48473 27.4687 4.55136 27.4696H23.9752C25.0423 27.4696 26.066 27.0459 26.8207 26.2915C27.5754 25.5372 27.9995 24.514 27.9999 23.4469V4.02451C27.9997 3.49578 27.8952 2.9722 27.6927 2.4838C27.4901 1.9954 27.1931 1.55167 26.819 1.17796C26.445 0.804248 26.0009 0.507907 25.5123 0.30578C25.0238 0.103652 24.5006 -0.000226699 23.9718 3.71462e-07ZM14.2595 21.3897C13.2545 21.3899 12.2598 21.1921 11.3313 20.8076C10.4027 20.423 9.55845 19.8593 8.84789 19.1486C8.13732 18.4378 7.57439 17.594 7.19005 16.6654C6.80571 15.7368 6.608 14.7416 6.60846 13.7365C6.608 12.7315 6.80571 11.7363 7.19005 10.8077C7.57439 9.87907 8.13732 9.03525 8.84789 8.32452C9.55845 7.6138 10.4027 7.05007 11.3313 6.66553C12.2598 6.28098 13.2545 6.08318 14.2595 6.08341C16.2892 6.08341 18.2358 6.8897 19.6711 8.32494C21.1063 9.76019 21.9131 11.7068 21.9131 13.7365C21.9126 15.766 21.1054 17.7121 19.6702 19.147C18.2351 20.5819 16.2889 21.3879 14.2595 21.3879V21.3897ZM23.1108 6.69539C22.8798 6.69539 22.6507 6.64985 22.4372 6.56139C22.2238 6.47292 22.0299 6.34329 21.8666 6.17985C21.7033 6.01641 21.5742 5.82231 21.4859 5.60881C21.3977 5.3953 21.3523 5.16655 21.3526 4.93552C21.3523 4.70449 21.3977 4.47564 21.4859 4.26213C21.5742 4.04862 21.7033 3.85464 21.8666 3.69119C22.0299 3.52775 22.2238 3.39812 22.4372 3.30966C22.6507 3.22119 22.8798 3.17565 23.1108 3.17565C23.342 3.17543 23.5708 3.22077 23.7844 3.30913C23.9981 3.39749 24.1924 3.5271 24.3559 3.69056C24.5194 3.85402 24.6491 4.0482 24.7374 4.26181C24.8258 4.47543 24.871 4.70435 24.8708 4.93552C24.8708 5.40181 24.6856 5.84897 24.3559 6.17869C24.0262 6.5084 23.5788 6.69359 23.1125 6.69359L23.1108 6.69539Z" fill="black"/>
<path d="M14.2555 18.5452C16.8811 18.5452 19.0095 16.4167 19.0095 13.7911C19.0095 11.1656 16.8811 9.03711 14.2555 9.03711C11.6299 9.03711 9.50146 11.1656 9.50146 13.7911C9.50146 16.4167 11.6299 18.5452 14.2555 18.5452Z" fill="black"/>
</svg>
