<svg width="28" height="28" viewBox="0 0 28 28" fill="none" xmlns="http://www.w3.org/2000/svg">
<path d="M23.9709 3.71462e-07H4.55038C3.4836 0.00137352 2.46074 0.425786 1.70657 1.18028C0.952398 1.93477 0.528259 2.95773 0.527344 4.02451V23.4469C0.528259 24.5135 0.952349 25.5362 1.70657 26.2904C2.46079 27.0446 3.48375 27.4687 4.55038 27.4696H23.9742C25.0413 27.4696 26.065 27.0459 26.8197 26.2915C27.5744 25.5372 27.9985 24.514 27.999 23.4469V4.02451C27.9987 3.49578 27.8943 2.9722 27.6917 2.4838C27.4892 1.9954 27.1921 1.55167 26.8181 1.17796C26.444 0.804248 25.9999 0.507907 25.5114 0.30578C25.0228 0.103652 24.4996 -0.000226699 23.9709 3.71462e-07ZM14.2585 21.3897C13.2535 21.3899 12.2588 21.1921 11.3303 20.8076C10.4018 20.423 9.55748 19.8593 8.84691 19.1486C8.13634 18.4378 7.57341 17.594 7.18907 16.6654C6.80474 15.7368 6.60703 14.7416 6.60748 13.7365C6.60703 12.7315 6.80474 11.7363 7.18907 10.8077C7.57341 9.87907 8.13634 9.03525 8.84691 8.32452C9.55748 7.6138 10.4018 7.05007 11.3303 6.66553C12.2588 6.28098 13.2535 6.08318 14.2585 6.08341C16.2882 6.08341 18.2349 6.8897 19.6701 8.32494C21.1054 9.76019 21.9121 11.7068 21.9121 13.7365C21.9116 15.766 21.1045 17.7121 19.6693 19.147C18.2341 20.5819 16.288 21.3879 14.2585 21.3879V21.3897ZM23.1099 6.69539C22.8788 6.69539 22.6497 6.64985 22.4363 6.56139C22.2228 6.47292 22.0289 6.34329 21.8656 6.17985C21.7024 6.01641 21.5732 5.82231 21.485 5.60881C21.3967 5.3953 21.3514 5.16655 21.3516 4.93552C21.3514 4.70449 21.3967 4.47564 21.485 4.26213C21.5732 4.04862 21.7024 3.85464 21.8656 3.69119C22.0289 3.52775 22.2228 3.39812 22.4363 3.30966C22.6497 3.22119 22.8788 3.17565 23.1099 3.17565C23.341 3.17543 23.5699 3.22077 23.7835 3.30913C23.9971 3.39749 24.1915 3.5271 24.3549 3.69056C24.5184 3.85402 24.6481 4.0482 24.7365 4.26181C24.8248 4.47543 24.8701 4.70435 24.8698 4.93552C24.8698 5.40181 24.6846 5.84897 24.3549 6.17869C24.0252 6.5084 23.5778 6.69359 23.1116 6.69359L23.1099 6.69539Z" fill="#8C8C8C"/>
<path d="M14.254 18.5454C16.8796 18.5454 19.0081 16.417 19.0081 13.7914C19.0081 11.1658 16.8796 9.03735 14.254 9.03735C11.6285 9.03735 9.5 11.1658 9.5 13.7914C9.5 16.417 11.6285 18.5454 14.254 18.5454Z" fill="#8C8C8C"/>
</svg>
