<svg width="29" height="28" viewBox="0 0 29 28" fill="none" xmlns="http://www.w3.org/2000/svg">
<path d="M22.3904 0H6.32539C3.15714 0 0.587891 2.56925 0.587891 5.7375V21.8025C0.587891 24.9707 3.15714 27.54 6.32539 27.54H22.3904C25.5598 27.54 28.1279 24.9707 28.1279 21.8025V5.7375C28.1279 2.56925 25.5598 0 22.3904 0ZM9.76789 21.8025H6.32539V9.17999H9.76789V21.8025ZM8.04664 7.72496C6.93816 7.72496 6.03852 6.81844 6.03852 5.70078C6.03852 4.58311 6.93816 3.67659 8.04664 3.67659C9.15513 3.67659 10.0548 4.58311 10.0548 5.70078C10.0548 6.81844 9.15627 7.72496 8.04664 7.72496ZM23.5379 21.8025H20.0954V15.3719C20.0954 11.5071 15.5054 11.7997 15.5054 15.3719V21.8025H12.0629V9.17999H15.5054V11.2053C17.1073 8.2379 23.5379 8.01872 23.5379 14.0465V21.8025Z" fill="#8C8C8C"/>
</svg>
