<svg width="28" height="28" viewBox="0 0 28 28" fill="none" xmlns="http://www.w3.org/2000/svg">
<path d="M21.8025 0H5.7375C2.56925 0 0 2.56925 0 5.7375V21.8025C0 24.9707 2.56925 27.54 5.7375 27.54H21.8025C24.9719 27.54 27.54 24.9707 27.54 21.8025V5.7375C27.54 2.56925 24.9719 0 21.8025 0ZM9.18 21.8025H5.7375V9.17999H9.18V21.8025ZM7.45875 7.72496C6.35027 7.72496 5.45063 6.81844 5.45063 5.70078C5.45063 4.58311 6.35027 3.67659 7.45875 3.67659C8.56723 3.67659 9.46688 4.58311 9.46688 5.70078C9.46688 6.81844 8.56838 7.72496 7.45875 7.72496ZM22.95 21.8025H19.5075V15.3719C19.5075 11.5071 14.9175 11.7997 14.9175 15.3719V21.8025H11.475V9.17999H14.9175V11.2053C16.5194 8.2379 22.95 8.01872 22.95 14.0465V21.8025Z" fill="black"/>
</svg>
