<svg width="96" height="17" viewBox="0 0 75 17" fill="none" xmlns="http://www.w3.org/2000/svg">
<path d="M10.22 6.24C10.22 6.94667 10.0533 7.61333 9.72 8.24C9.38667 8.86667 8.85333 9.38 8.12 9.78C7.38667 10.1667 6.44667 10.36 5.3 10.36H2.78V16H0.5V2.1H5.3C6.36667 2.1 7.26667 2.28667 8 2.66C8.74667 3.02 9.3 3.51333 9.66 4.14C10.0333 4.76667 10.22 5.46667 10.22 6.24ZM5.3 8.5C6.16667 8.5 6.81333 8.30667 7.24 7.92C7.66667 7.52 7.88 6.96 7.88 6.24C7.88 4.72 7.02 3.96 5.3 3.96H2.78V8.5H5.3ZM17.1745 16.18C16.1345 16.18 15.1945 15.9467 14.3545 15.48C13.5145 15 12.8545 14.3333 12.3745 13.48C11.8945 12.6133 11.6545 11.6133 11.6545 10.48C11.6545 9.36 11.9012 8.36667 12.3945 7.5C12.8879 6.63333 13.5612 5.96667 14.4145 5.5C15.2679 5.03333 16.2212 4.8 17.2745 4.8C18.3279 4.8 19.2812 5.03333 20.1345 5.5C20.9879 5.96667 21.6612 6.63333 22.1545 7.5C22.6479 8.36667 22.8945 9.36 22.8945 10.48C22.8945 11.6 22.6412 12.5933 22.1345 13.46C21.6279 14.3267 20.9345 15 20.0545 15.48C19.1879 15.9467 18.2279 16.18 17.1745 16.18ZM17.1745 14.2C17.7612 14.2 18.3079 14.06 18.8145 13.78C19.3345 13.5 19.7545 13.08 20.0745 12.52C20.3945 11.96 20.5545 11.28 20.5545 10.48C20.5545 9.68 20.4012 9.00667 20.0945 8.46C19.7879 7.9 19.3812 7.48 18.8745 7.2C18.3679 6.92 17.8212 6.78 17.2345 6.78C16.6479 6.78 16.1012 6.92 15.5945 7.2C15.1012 7.48 14.7079 7.9 14.4145 8.46C14.1212 9.00667 13.9745 9.68 13.9745 10.48C13.9745 11.6667 14.2745 12.5867 14.8745 13.24C15.4879 13.88 16.2545 14.2 17.1745 14.2ZM27.4284 6.58C27.7618 6.02 28.2018 5.58667 28.7484 5.28C29.3084 4.96 29.9684 4.8 30.7284 4.8V7.16H30.1484C29.2551 7.16 28.5751 7.38667 28.1084 7.84C27.6551 8.29333 27.4284 9.08 27.4284 10.2V16H25.1484V4.98H27.4284V6.58ZM35.4842 6.84V12.94C35.4842 13.3533 35.5776 13.6533 35.7642 13.84C35.9642 14.0133 36.2976 14.1 36.7642 14.1H38.1642V16H36.3642C35.3376 16 34.5509 15.76 34.0042 15.28C33.4576 14.8 33.1842 14.02 33.1842 12.94V6.84H31.8842V4.98H33.1842V2.24H35.4842V4.98H38.1642V6.84H35.4842ZM44.8856 6.84H42.8456V16H40.5456V6.84H39.2456V4.98H40.5456V4.2C40.5456 2.93333 40.879 2.01333 41.5456 1.44C42.2256 0.853333 43.2856 0.56 44.7256 0.56V2.46C44.0323 2.46 43.5456 2.59333 43.2656 2.86C42.9856 3.11333 42.8456 3.56 42.8456 4.2V4.98H44.8856V6.84ZM51.6863 16.18C50.6463 16.18 49.7063 15.9467 48.8663 15.48C48.0263 15 47.3663 14.3333 46.8863 13.48C46.4063 12.6133 46.1663 11.6133 46.1663 10.48C46.1663 9.36 46.4129 8.36667 46.9063 7.5C47.3996 6.63333 48.0729 5.96667 48.9263 5.5C49.7796 5.03333 50.7329 4.8 51.7863 4.8C52.8396 4.8 53.7929 5.03333 54.6463 5.5C55.4996 5.96667 56.1729 6.63333 56.6663 7.5C57.1596 8.36667 57.4063 9.36 57.4063 10.48C57.4063 11.6 57.1529 12.5933 56.6463 13.46C56.1396 14.3267 55.4463 15 54.5663 15.48C53.6996 15.9467 52.7396 16.18 51.6863 16.18ZM51.6863 14.2C52.2729 14.2 52.8196 14.06 53.3263 13.78C53.8463 13.5 54.2663 13.08 54.5863 12.52C54.9063 11.96 55.0663 11.28 55.0663 10.48C55.0663 9.68 54.9129 9.00667 54.6063 8.46C54.2996 7.9 53.8929 7.48 53.3863 7.2C52.8796 6.92 52.3329 6.78 51.7463 6.78C51.1596 6.78 50.6129 6.92 50.1063 7.2C49.6129 7.48 49.2196 7.9 48.9263 8.46C48.6329 9.00667 48.4863 9.68 48.4863 10.48C48.4863 11.6667 48.7863 12.5867 49.3863 13.24C49.9996 13.88 50.7663 14.2 51.6863 14.2ZM61.9402 1.2V16H59.6602V1.2H61.9402ZM66.0936 3.52C65.6803 3.52 65.3336 3.38 65.0536 3.1C64.7736 2.82 64.6336 2.47333 64.6336 2.06C64.6336 1.64667 64.7736 1.3 65.0536 1.02C65.3336 0.739999 65.6803 0.599999 66.0936 0.599999C66.4936 0.599999 66.8336 0.739999 67.1136 1.02C67.3936 1.3 67.5336 1.64667 67.5336 2.06C67.5336 2.47333 67.3936 2.82 67.1136 3.1C66.8336 3.38 66.4936 3.52 66.0936 3.52ZM67.2136 4.98V16H64.9336V4.98H67.2136ZM76.547 16.14C75.2537 16.14 74.0604 15.84 72.967 15.24C71.887 14.6267 71.027 13.78 70.387 12.7C69.7604 11.6067 69.447 10.38 69.447 9.02C69.447 7.66 69.7604 6.44 70.387 5.36C71.027 4.28 71.887 3.44 72.967 2.84C74.0604 2.22667 75.2537 1.92 76.547 1.92C77.8537 1.92 79.047 2.22667 80.127 2.84C81.2204 3.44 82.0804 4.28 82.707 5.36C83.3337 6.44 83.647 7.66 83.647 9.02C83.647 10.38 83.3337 11.6067 82.707 12.7C82.0804 13.78 81.2204 14.6267 80.127 15.24C79.047 15.84 77.8537 16.14 76.547 16.14ZM76.547 14.16C77.467 14.16 78.287 13.9533 79.007 13.54C79.727 13.1133 80.287 12.5133 80.687 11.74C81.1004 10.9533 81.307 10.0467 81.307 9.02C81.307 7.99333 81.1004 7.09333 80.687 6.32C80.287 5.54667 79.727 4.95333 79.007 4.54C78.287 4.12667 77.467 3.92 76.547 3.92C75.627 3.92 74.807 4.12667 74.087 4.54C73.367 4.95333 72.8004 5.54667 72.387 6.32C71.987 7.09333 71.787 7.99333 71.787 9.02C71.787 10.0467 71.987 10.9533 72.387 11.74C72.8004 12.5133 73.367 13.1133 74.087 13.54C74.807 13.9533 75.627 14.16 76.547 14.16ZM90.2506 10.5L95.3306 16H92.2506L88.1706 11.26V16H85.8906V1.2H88.1706V9.8L92.1706 4.98H95.3306L90.2506 10.5Z" fill="black"/>
</svg>
