<svg width="33" height="28" viewBox="0 0 33 28" fill="none" xmlns="http://www.w3.org/2000/svg">
<path d="M31.4051 0.526698C30.1109 1.35005 28.6741 1.91545 27.1714 2.19265C26.5555 1.51048 25.8082 0.963897 24.9757 0.586741C24.1433 0.209585 23.2435 0.00988336 22.332 0C18.703 0 15.679 3.06963 15.679 6.92867C15.6938 7.45879 15.7516 7.98677 15.8517 8.50727C10.3228 8.24477 5.48421 5.43828 2.20097 1.31611C1.60309 2.38365 1.30432 3.59689 1.33702 4.82444C1.35237 5.95413 1.62567 7.0648 2.13542 8.06915C2.64517 9.07349 3.37748 9.94411 4.27477 10.6126C3.1516 10.6126 2.20118 10.2616 1.25075 9.73559V9.82337C1.25075 13.1553 3.49731 15.9628 6.6078 16.5767C6.04899 16.7561 5.46578 16.8449 4.8797 16.8398C4.4745 16.8575 4.06865 16.8281 3.67005 16.752C4.08803 18.1104 4.91072 19.3038 6.02476 20.1678C7.13881 21.0318 8.48938 21.5238 9.89041 21.576C7.5723 23.4964 4.67418 24.5493 1.6821 24.5581C1.16222 24.5726 0.642044 24.5433 0.126953 24.4703C3.15892 26.4785 6.7021 27.5452 10.3224 27.54C22.5051 27.54 29.2446 17.0152 29.2446 7.89385V7.01688C30.5527 6.03956 31.6665 4.81939 32.527 3.42098C31.3173 3.94725 30.0214 4.38574 28.7253 4.47352C29.9492 3.42394 30.8744 2.06128 31.4051 0.526698Z" fill="#8C8C8C"/>
</svg>
