<svg width="34" height="28" viewBox="0 0 34 28" fill="none" xmlns="http://www.w3.org/2000/svg">
<path d="M32.1121 0.526698C30.818 1.35005 29.3811 1.91545 27.8784 2.19265C27.2625 1.51048 26.5152 0.963897 25.6828 0.586741C24.8503 0.209585 23.9505 0.00988336 23.039 0C19.41 0 16.386 3.06963 16.386 6.92867C16.4008 7.45879 16.4586 7.98677 16.5588 8.50727C11.0298 8.24477 6.19124 5.43828 2.908 1.31611C2.31013 2.38365 2.01136 3.59689 2.04405 4.82444C2.0594 5.95413 2.3327 7.0648 2.84245 8.06915C3.3522 9.07349 4.08451 9.94411 4.9818 10.6126C3.85863 10.6126 2.90821 10.2616 1.95779 9.73559V9.82337C1.95779 13.1553 4.20434 15.9628 7.31483 16.5767C6.75602 16.7561 6.17281 16.8449 5.58673 16.8398C5.18154 16.8575 4.77568 16.8281 4.37708 16.752C4.79506 18.1104 5.61775 19.3038 6.73179 20.1678C7.84584 21.0318 9.19641 21.5238 10.5974 21.576C8.27933 23.4964 5.38122 24.5493 2.38913 24.5581C1.86925 24.5726 1.34908 24.5433 0.833984 24.4703C3.86595 26.4785 7.40913 27.5452 11.0294 27.54C23.2122 27.54 29.9516 17.0152 29.9516 7.89385V7.01688C31.2597 6.03956 32.3735 4.81939 33.234 3.42098C32.0243 3.94725 30.7284 4.38574 29.4323 4.47352C30.6562 3.42394 31.5814 2.06128 32.1121 0.526698Z" fill="black"/>
</svg>
